<svg width="32" height="32" viewBox="0 0 32 32" fill="none" xmlns="http://www.w3.org/2000/svg">
<path d="M26.64 6.89264C24.0925 4.84264 20.0625 4.49514 19.89 4.48264C19.6225 4.46014 19.3675 4.61014 19.2575 4.85764C19.2475 4.87264 19.16 5.07514 19.0625 5.39014C20.7475 5.67514 22.8175 6.24764 24.69 7.41014C24.99 7.59514 25.0825 7.99014 24.8975 8.29014C24.775 8.48764 24.5675 8.59514 24.3525 8.59514C24.2375 8.59514 24.12 8.56264 24.015 8.49764C20.795 6.50014 16.775 6.40014 16 6.40014C15.225 6.40014 11.2025 6.50014 7.98503 8.49764C7.68503 8.68514 7.29003 8.59264 7.10503 8.29264C6.91753 7.99014 7.01003 7.59764 7.31003 7.41014C9.18253 6.25014 11.2525 5.67514 12.9375 5.39264C12.84 5.07514 12.7525 4.87514 12.745 4.85764C12.6325 4.61014 12.38 4.45514 12.11 4.48264C11.9375 4.49514 7.90753 4.84264 5.32503 6.92014C3.97753 8.16764 1.28003 15.4576 1.28003 21.7601C1.28003 21.8726 1.31003 21.9801 1.36503 22.0776C3.22503 25.3476 8.30253 26.2026 9.46003 26.2401C9.46503 26.2401 9.47253 26.2401 9.48003 26.2401C9.68503 26.2401 9.87753 26.1426 9.99753 25.9776L11.1675 24.3676C8.01003 23.5526 6.39753 22.1676 6.30503 22.0851C6.04003 21.8526 6.01503 21.4476 6.25003 21.1826C6.48253 20.9176 6.88753 20.8926 7.15253 21.1251C7.19003 21.1601 10.16 23.6801 16 23.6801C21.85 23.6801 24.82 21.1501 24.85 21.1251C25.115 20.8951 25.5175 20.9176 25.7525 21.1851C25.985 21.4501 25.96 21.8526 25.695 22.0851C25.6025 22.1676 23.99 23.5526 20.8325 24.3676L22.0025 25.9776C22.1225 26.1426 22.315 26.2401 22.52 26.2401C22.5275 26.2401 22.535 26.2401 22.54 26.2401C23.6975 26.2026 28.775 25.3476 30.635 22.0776C30.69 21.9801 30.72 21.8726 30.72 21.7601C30.72 15.4576 28.0225 8.16764 26.64 6.89264ZM11.84 19.2001C10.6025 19.2001 9.60003 18.0551 9.60003 16.6401C9.60003 15.2251 10.6025 14.0801 11.84 14.0801C13.0775 14.0801 14.08 15.2251 14.08 16.6401C14.08 18.0551 13.0775 19.2001 11.84 19.2001ZM20.16 19.2001C18.9225 19.2001 17.92 18.0551 17.92 16.6401C17.92 15.2251 18.9225 14.0801 20.16 14.0801C21.3975 14.0801 22.4 15.2251 22.4 16.6401C22.4 18.0551 21.3975 19.2001 20.16 19.2001Z" fill="#80E9E5"/>
</svg>
