<svg width="33" height="32" viewBox="0 0 33 32" fill="none" xmlns="http://www.w3.org/2000/svg">
<g clip-path="url(#clip0_3401_9902)">
<path d="M16.4399 0.640137C7.60394 0.640137 0.439941 7.80414 0.439941 16.6401C0.439941 24.1375 5.60261 30.4108 12.5626 32.1468C12.4879 31.9308 12.4399 31.6801 12.4399 31.3695V28.6348C11.7906 28.6348 10.7026 28.6348 10.4293 28.6348C9.33461 28.6348 8.36127 28.1641 7.88927 27.2895C7.36527 26.3175 7.27461 24.8308 5.97594 23.9215C5.59061 23.6188 5.88394 23.2735 6.32794 23.3201C7.14794 23.5521 7.82794 24.1148 8.46794 24.9495C9.10528 25.7855 9.40527 25.9748 10.5959 25.9748C11.1733 25.9748 12.0373 25.9415 12.8506 25.8135C13.2879 24.7028 14.0439 23.6801 14.9679 23.1975C9.63994 22.6495 7.09727 19.9988 7.09727 16.4001C7.09727 14.8508 7.75728 13.3521 8.87861 12.0895C8.51061 10.8361 8.04794 8.28014 9.01994 7.3068C11.4173 7.3068 12.8666 8.86147 13.2146 9.28147C14.4093 8.87214 15.7213 8.64014 17.0999 8.64014C18.4813 8.64014 19.7986 8.87214 20.9959 9.28414C21.3399 8.8668 22.7906 7.3068 25.1933 7.3068C26.1693 8.28147 25.7013 10.8481 25.3293 12.0988C26.4439 13.3588 27.0999 14.8535 27.0999 16.4001C27.0999 19.9961 24.5613 22.6455 19.2413 23.1961C20.7053 23.9601 21.7733 26.1068 21.7733 27.7241V31.3695C21.7733 31.5081 21.7426 31.6081 21.7266 31.7268C27.9613 29.5415 32.4399 23.6215 32.4399 16.6401C32.4399 7.80414 25.2759 0.640137 16.4399 0.640137Z" fill="#80E9E5"/>
</g>
<defs>
<clipPath id="clip0_3401_9902">
<rect width="32" height="32" fill="white" transform="translate(0.439941)"/>
</clipPath>
</defs>
</svg>
