<svg width="30" height="30" viewBox="0 0 30 30" fill="none" xmlns="http://www.w3.org/2000/svg">
<path fill-rule="evenodd" clip-rule="evenodd" d="M0 13.7199C0 6.66242 6.6025 0.919922 14.72 0.919922C22.8375 0.919922 29.44 6.66242 29.44 13.7199C29.44 20.7774 22.8375 26.5199 14.72 26.5199C13.4975 26.5199 12.285 26.3899 11.1125 26.1324C10.34 26.9499 7.99 29.0799 4.515 29.0799L3.25 29.0749L3.9575 28.0724C5.3025 26.1624 5.6425 24.5299 5.7275 23.8574C2.135 21.4424 0 17.6799 0 13.7199ZM3.84 14.069C3.84 8.93629 8.72011 4.75992 14.72 4.75992C20.7199 4.75992 25.6 8.93629 25.6 14.069C25.6 19.2017 20.7199 23.3781 14.72 23.3781C13.8164 23.3781 12.9202 23.2836 12.0536 23.0963C11.4826 23.6908 9.74565 25.2399 7.17718 25.2399L6.24218 25.2363L6.76511 24.5072C7.75924 23.1181 8.01054 21.9308 8.07337 21.4417C5.41804 19.6854 3.84 16.949 3.84 14.069Z" fill="#80E9E5"/>
</svg>
