<svg width="33" height="32" viewBox="0 0 33 32" fill="none" xmlns="http://www.w3.org/2000/svg">
<path d="M16.44 1.27979C24.5699 1.27979 31.16 7.86986 31.16 15.9998C31.16 24.1297 24.5699 30.7198 16.44 30.7198C8.31005 30.7198 1.71997 24.1297 1.71997 15.9998C1.71997 7.86986 8.31005 1.27979 16.44 1.27979ZM21.5177 21.9998C21.7884 21.1691 23.0569 12.89 23.2137 11.2587C23.2611 10.7646 23.1049 10.4363 22.799 10.2897C22.4291 10.1118 21.8813 10.2007 21.2457 10.4299C20.3741 10.7441 9.23037 15.4756 8.58653 15.7495C7.97597 16.0087 7.39869 16.2916 7.39869 16.7012C7.39869 16.9892 7.56957 17.1511 8.04061 17.3195C8.53085 17.4942 9.76541 17.8686 10.4944 18.0695C11.1965 18.2635 11.9958 18.0951 12.4438 17.8167C12.9187 17.5217 18.399 13.8545 18.7926 13.5332C19.1856 13.2119 19.4992 13.6235 19.1779 13.9454C18.8566 14.2667 15.0947 17.9179 14.5987 18.4235C13.9964 19.0372 14.424 19.6734 14.8278 19.9281C15.2893 20.2187 18.6077 22.4446 19.1075 22.8017C19.6073 23.1588 20.1142 23.3207 20.5782 23.3207C21.0422 23.3207 21.2867 22.7095 21.5177 21.9998Z" fill="#80E9E5"/>
</svg>
