<svg width="33" height="32" viewBox="0 0 33 32" fill="none" xmlns="http://www.w3.org/2000/svg">
<g clip-path="url(#clip0_3401_9900)">
<path d="M32.48 6.68021C31.2975 7.20521 30.03 7.55771 28.6975 7.71771C30.0575 6.90271 31.1025 5.61271 31.5925 4.07771C30.3225 4.83021 28.91 5.37771 27.4125 5.67271C26.2125 4.39271 24.5025 3.59521 22.61 3.59521C18.975 3.59521 16.0275 6.54021 16.0275 10.1752C16.0275 10.6902 16.0875 11.1927 16.2 11.6752C10.73 11.4002 5.88247 8.78021 2.63497 4.79771C2.06747 5.77271 1.74497 6.90271 1.74497 8.10771C1.74497 10.3902 2.90497 12.4052 4.67247 13.5877C3.59247 13.5527 2.57747 13.2552 1.68997 12.7627C1.68997 12.7902 1.68997 12.8177 1.68997 12.8452C1.68997 16.0352 3.95997 18.6927 6.96747 19.3002C6.41747 19.4502 5.83497 19.5302 5.23497 19.5302C4.80997 19.5302 4.39747 19.4902 3.99497 19.4102C4.83497 22.0227 7.26497 23.9302 10.1425 23.9827C7.89247 25.7477 5.05497 26.7977 1.96997 26.7977C1.43747 26.7977 0.914966 26.7677 0.402466 26.7052C3.31247 28.5752 6.77247 29.6627 10.49 29.6627C22.595 29.6627 29.215 19.6352 29.215 10.9402C29.215 10.6552 29.2075 10.3677 29.1975 10.0877C30.4825 9.16021 31.5975 8.00021 32.48 6.68021Z" fill="#80E9E5"/>
</g>
<defs>
<clipPath id="clip0_3401_9900">
<rect width="32" height="32" fill="white" transform="translate(0.439941)"/>
</clipPath>
</defs>
</svg>
