<svg width="33" height="32" viewBox="0 0 33 32" fill="none" xmlns="http://www.w3.org/2000/svg">
<path d="M16.806 3.99902C17.607 4.00352 19.6113 4.02303 21.7415 4.10853L22.4976 4.14154C24.6413 4.24205 26.7835 4.41607 27.8471 4.7116C29.2648 5.11064 30.3779 6.27176 30.7544 7.74492C31.3545 10.0852 31.4295 14.6486 31.4385 15.7543L31.44 15.9823V16.2433C31.4295 17.3489 31.3545 21.9139 30.7544 24.2526C30.3734 25.7303 29.2588 26.8929 27.8471 27.286C26.7835 27.5815 24.6413 27.7555 22.4976 27.856L21.7415 27.8905C19.6113 27.9745 17.607 27.9955 16.806 27.9985L16.4534 28H16.0709C14.3757 27.9895 7.28596 27.913 5.02973 27.286C3.61358 26.8869 2.49897 25.7258 2.12243 24.2526C1.52236 21.9124 1.44736 17.3489 1.43835 16.2433V15.7543C1.44736 14.6486 1.52236 10.0837 2.12243 7.74492C2.50347 6.26726 3.61808 5.10464 5.03123 4.7131C7.28596 4.08453 14.3772 4.00802 16.0724 3.99902H16.806ZM13.4381 10.7497V21.2508L22.439 16.0003L13.4381 10.7497Z" fill="#80E9E5"/>
</svg>
