<svg width="118" height="54" viewBox="0 0 118 54" fill="none" xmlns="http://www.w3.org/2000/svg">
<path d="M3.05902 52.1951V42.6638H4.65418V50.6992H8.8638V52.1951H3.05902ZM13.824 52.1951L16.829 42.6638H19.1655L22.1705 52.1951H20.529L17.802 43.6434H18.1594L15.4655 52.1951H13.824ZM15.4986 50.13V48.6407H20.5025V50.13H15.4986ZM27.868 52.1951V42.6638H29.483L33.9045 49.382V42.6638H35.5195V52.1951H33.9045L29.483 45.4769V52.1951H27.868ZM41.8706 52.1951V42.6638H44.9087C44.9881 42.6638 45.1448 42.6661 45.3786 42.6705C45.6169 42.6749 45.8464 42.6903 46.067 42.7168C46.8216 42.8139 47.4592 43.083 47.9799 43.5243C48.505 43.9612 48.9021 44.5193 49.1713 45.1989C49.4404 45.8784 49.575 46.622 49.575 47.4295C49.575 48.237 49.4404 48.9805 49.1713 49.66C48.9021 50.3396 48.505 50.9 47.9799 51.3412C47.4592 51.7781 46.8216 52.045 46.067 52.1421C45.8508 52.1686 45.6235 52.184 45.3852 52.1884C45.147 52.1929 44.9881 52.1951 44.9087 52.1951H41.8706ZM43.4922 50.6926H44.9087C45.0411 50.6926 45.2087 50.6882 45.4117 50.6793C45.6191 50.6705 45.8022 50.6507 45.9611 50.6198C46.4112 50.5359 46.7774 50.3352 47.0598 50.0174C47.3422 49.6997 47.5496 49.3136 47.682 48.8591C47.8188 48.4046 47.8872 47.9281 47.8872 47.4295C47.8872 46.9132 47.8188 46.4278 47.682 45.9733C47.5452 45.5188 47.3334 45.1371 47.0466 44.8282C46.7642 44.5193 46.4024 44.323 45.9611 44.2391C45.8022 44.2038 45.6191 44.184 45.4117 44.1796C45.2087 44.1708 45.0411 44.1663 44.9087 44.1663H43.4922V50.6926ZM59.1684 52.3936C58.4712 52.3936 57.8424 52.2723 57.282 52.0296C56.726 51.7869 56.2671 51.4405 55.9053 50.9904C55.5478 50.5359 55.3206 49.9976 55.2235 49.3754L56.8782 49.1239C57.0195 49.6887 57.3085 50.1256 57.7453 50.4344C58.1866 50.7433 58.694 50.8978 59.2677 50.8978C59.6074 50.8978 59.9274 50.8448 60.2274 50.7389C60.5275 50.633 60.7702 50.4786 60.9555 50.2756C61.1452 50.0726 61.2401 49.8233 61.2401 49.5277C61.2401 49.3953 61.218 49.2739 61.1739 49.1636C61.1298 49.0489 61.0636 48.9474 60.9753 48.8591C60.8915 48.7709 60.7812 48.6915 60.6444 48.6209C60.512 48.5458 60.3576 48.4819 60.1811 48.4289L57.7188 47.7008C57.507 47.6391 57.2776 47.5574 57.0305 47.4559C56.7878 47.35 56.5561 47.2066 56.3355 47.0257C56.1193 46.8404 55.9406 46.6065 55.7994 46.3241C55.6626 46.0373 55.5942 45.6843 55.5942 45.2651C55.5942 44.6517 55.7486 44.1377 56.0575 43.7229C56.3708 43.3037 56.79 42.9904 57.3151 42.783C57.8446 42.5756 58.4315 42.4741 59.0757 42.4785C59.7288 42.4829 60.3113 42.5955 60.8231 42.8161C61.335 43.0323 61.763 43.3478 62.1072 43.7626C62.4514 44.1774 62.6941 44.6782 62.8353 45.2651L61.121 45.5629C61.0504 45.2276 60.9136 44.943 60.7106 44.7091C60.512 44.4708 60.2671 44.2899 59.9759 44.1663C59.6891 44.0428 59.3824 43.9766 59.0559 43.9678C58.7382 43.9634 58.4425 44.0119 58.1689 44.1134C57.8998 44.2105 57.6813 44.3517 57.5137 44.537C57.3504 44.7223 57.2688 44.9385 57.2688 45.1857C57.2688 45.4195 57.3394 45.6115 57.4806 45.7615C57.6218 45.9071 57.7961 46.024 58.0035 46.1123C58.2153 46.1961 58.4293 46.2667 58.6455 46.3241L60.3532 46.8007C60.587 46.8624 60.8496 46.9463 61.1408 47.0522C61.4321 47.1581 61.7123 47.3059 61.9814 47.4956C62.2506 47.6854 62.4712 47.9347 62.6433 48.2436C62.8198 48.5525 62.9081 48.9452 62.9081 49.4217C62.9081 49.916 62.8044 50.3506 62.597 50.7257C62.394 51.0963 62.1182 51.4052 61.7696 51.6523C61.421 51.8994 61.0217 52.0848 60.5716 52.2083C60.1259 52.3319 59.6582 52.3936 59.1684 52.3936ZM72.8725 52.3936C71.9194 52.3936 71.1031 52.1862 70.4235 51.7715C69.744 51.3523 69.2211 50.7698 68.8548 50.0241C68.493 49.2783 68.3121 48.4135 68.3121 47.4295C68.3121 46.4454 68.493 45.5806 68.8548 44.8348C69.2211 44.0891 69.744 43.5089 70.4235 43.0941C71.1031 42.6749 71.9194 42.4653 72.8725 42.4653C73.9713 42.4653 74.8869 42.7411 75.6194 43.2926C76.3518 43.8398 76.8659 44.5789 77.1616 45.51L75.5532 45.9534C75.3678 45.3313 75.0523 44.8459 74.6067 44.4973C74.161 44.1443 73.5829 43.9678 72.8725 43.9678C72.2327 43.9678 71.6988 44.1112 71.2707 44.398C70.8471 44.6848 70.5272 45.0886 70.311 45.6093C70.0992 46.1255 69.9911 46.7323 69.9867 47.4295C69.9867 48.1266 70.0926 48.7356 70.3044 49.2563C70.5206 49.7725 70.8427 50.1741 71.2707 50.4609C71.6988 50.7477 72.2327 50.8911 72.8725 50.8911C73.5829 50.8911 74.161 50.7146 74.6067 50.3616C75.0523 50.0086 75.3678 49.5232 75.5532 48.9055L77.1616 49.3489C76.8659 50.28 76.3518 51.0213 75.6194 51.5729C74.8869 52.1201 73.9713 52.3936 72.8725 52.3936ZM82.1952 52.1951L85.2002 42.6638H87.5367L90.5417 52.1951H88.9002L86.1732 43.6434H86.5306L83.8367 52.1951H82.1952ZM83.8698 50.13V48.6407H88.8737V50.13H83.8698ZM96.2392 52.1951V42.6638H100.177C100.27 42.6638 100.389 42.6683 100.535 42.6771C100.68 42.6815 100.815 42.6947 100.939 42.7168C101.49 42.8006 101.945 42.9838 102.302 43.2662C102.664 43.5486 102.931 43.906 103.103 44.3384C103.28 44.7665 103.368 45.243 103.368 45.7681C103.368 46.2888 103.28 46.7654 103.103 47.1978C102.927 47.6258 102.657 47.981 102.296 48.2634C101.938 48.5458 101.486 48.729 100.939 48.8128C100.815 48.8305 100.678 48.8437 100.528 48.8525C100.383 48.8613 100.266 48.8658 100.177 48.8658H97.8344V52.1951H96.2392ZM97.8344 47.3765H100.111C100.2 47.3765 100.299 47.3721 100.409 47.3633C100.519 47.3544 100.621 47.3368 100.714 47.3103C100.978 47.2441 101.186 47.1272 101.336 46.9595C101.49 46.7918 101.598 46.6021 101.66 46.3903C101.726 46.1785 101.759 45.9711 101.759 45.7681C101.759 45.5651 101.726 45.3577 101.66 45.1459C101.598 44.9297 101.49 44.7378 101.336 44.5701C101.186 44.4024 100.978 44.2855 100.714 44.2193C100.621 44.1928 100.519 44.1774 100.409 44.173C100.299 44.1641 100.2 44.1597 100.111 44.1597H97.8344V47.3765ZM109.195 52.1951V42.6638H115.35V44.1597H110.79V46.5094H114.556V48.0053H110.79V50.6992H115.35V52.1951H109.195Z" fill="#80E9E5"/>
<g clip-path="url(#clip0_1265_1468)">
<path d="M49.7538 7.90442C47.6661 7.90442 46.148 8.39686 44.8582 9.53284L42.5806 11.5018C42.3908 11.6537 42.011 11.7672 41.7459 11.5394C41.4799 11.3124 41.4422 11.0094 41.6698 10.7064L42.8842 8.88852C43.0741 8.62312 42.9227 8.28256 42.5806 8.28256H39.6581C39.3169 8.28256 39.0509 8.54796 39.0509 8.88852V26.6133C39.0509 26.9539 39.3169 27.2193 39.6581 27.2193H42.6944C43.0357 27.2193 43.3016 26.9539 43.3016 26.6133V16.6149C43.3016 12.0326 47.135 11.3132 48.577 11.3132C51.6509 11.3132 52.7516 13.51 52.7516 15.176V26.6133C52.7516 26.9539 53.0176 27.2193 53.3589 27.2193H56.3951C56.7364 27.2193 57.0024 26.9539 57.0024 26.6133V14.797C57.0024 10.5553 54.2313 7.90442 49.753 7.90442H49.7538Z" fill="white"/>
<path d="M69.374 7.82855C63.4914 7.82855 59.7342 11.4267 59.7342 16.312V19.0013C59.7342 24.1519 63.4914 27.6742 69.374 27.6742C74.5733 27.6742 78.2168 24.985 78.5965 21.3492C78.635 20.9703 78.369 20.7056 77.9893 20.7056H75.0291C74.7632 20.7056 74.5356 20.8575 74.4595 21.1221C74.0798 22.3341 72.2965 24.1519 69.374 24.1519C66.4516 24.1519 63.719 22.0311 63.7566 19.0013L63.7951 15.6309C63.8327 13.0935 66.49 11.3516 69.374 11.3516C71.9929 11.3516 74.5356 12.8289 74.8008 15.2528C74.8228 15.533 74.6298 15.7859 74.3528 15.8392L65.8435 17.4871C65.5023 17.5631 65.2363 17.8661 65.2363 18.2442V18.2818C65.2363 18.6223 65.5776 18.9253 66.0711 18.9253H78.2921C78.6279 18.9253 78.8994 18.6537 78.8994 18.3194V15.9339C78.8994 11.4275 74.9899 7.82933 69.3733 7.82933L69.374 7.82855Z" fill="white"/>
<path d="M90.5509 7.82854C85.8067 7.82854 81.7081 10.5929 81.7081 14.2287C81.7081 14.5317 81.9741 14.7587 82.3154 14.7587H85.3893C85.6929 14.7587 85.9204 14.5317 85.9589 14.2287C86.2625 12.5627 88.2741 11.3508 90.4371 11.3508C93.0175 11.3508 94.764 12.9416 94.764 15.6685V18.9637C94.764 22.3341 92.2589 24.0384 89.1465 24.0384C86.7175 24.0384 85.3132 23.1295 85.3132 21.6521C85.3132 20.3643 85.9965 19.2659 88.8045 18.6223L92.8653 17.5239C93.2827 17.4104 93.4349 17.0691 93.3588 16.6909C93.3212 16.388 92.9799 16.2361 92.6755 16.2361H88.4632C84.8958 16.2361 81.29 18.508 81.29 21.8408V22.3708C81.29 25.7796 84.5161 27.5591 88.1972 27.5591C90.5501 27.5591 92.5617 26.6502 93.8139 25.5901L95.674 23.9993C95.9777 23.7339 96.2813 23.7339 96.5465 23.9993C96.774 24.2263 96.6979 24.5677 96.508 24.8323L95.3696 26.6126C95.1798 26.878 95.3312 27.2185 95.6733 27.2185H98.4059C98.7472 27.2185 99.0131 26.9531 99.0131 26.6126V15.1369C99.0131 10.744 95.8631 7.82776 90.5493 7.82776L90.5509 7.82854Z" fill="white"/>
<path d="M115.409 8.28333H111.158C109.678 8.28333 108.236 9.19227 107.211 10.0636L105.541 11.5026C105.351 11.6545 105.009 11.768 104.782 11.5785C104.516 11.3891 104.402 11.0102 104.63 10.7072L105.845 8.88929C106.035 8.62389 105.883 8.28333 105.541 8.28333H102.695C102.354 8.28333 102.088 8.54873 102.088 8.88929V26.6141C102.088 26.9546 102.354 27.22 102.695 27.22H105.807C106.149 27.22 106.415 26.9546 106.415 26.6141V17.5246C106.415 13.6235 108.009 11.8815 111.462 11.8815H115.409C115.751 11.8815 116.017 11.6161 116.017 11.2756V8.88929C116.017 8.54873 115.751 8.28333 115.409 8.28333H115.409Z" fill="white"/>
<path d="M27.3972 4.01218C26.3772 4.01218 25.4303 4.53985 24.896 5.4073L19.1397 13.9354C18.9522 14.2165 19.0283 14.5954 19.3099 14.7825C19.5383 14.9344 19.8403 14.9156 20.0482 14.7371L25.7143 9.83301C25.8084 9.74846 25.9536 9.75707 26.0383 9.85102C26.0768 9.89408 26.0972 9.94967 26.0972 10.0068V25.361C26.0972 25.4878 25.9944 25.5896 25.8673 25.5896C25.799 25.5896 25.7347 25.5598 25.6915 25.5074L8.56387 5.04873C8.00605 4.39188 7.18697 4.01296 6.32474 4.01218H5.72612C4.10601 4.01218 2.79266 5.32275 2.79266 6.93943V28.5646C2.79266 30.1813 4.10601 31.4918 5.72612 31.4918C6.74605 31.4918 7.69301 30.9642 8.22729 30.0967L13.9836 21.5686C14.1711 21.2876 14.095 20.9087 13.8133 20.7215C13.585 20.5697 13.283 20.5884 13.0751 20.7669L7.409 25.671C7.31485 25.7556 7.16971 25.747 7.08498 25.653C7.04653 25.6099 7.02613 25.5544 7.02692 25.4972V10.1391C7.02692 10.0123 7.12969 9.91052 7.25679 9.91052C7.32427 9.91052 7.38938 9.94027 7.43253 9.99272L24.5578 30.4553C25.1157 31.1121 25.9347 31.4911 26.797 31.4918H27.3956C29.0157 31.4926 30.3298 30.1828 30.3314 28.5662V6.93943C30.3314 5.32275 29.0181 4.01218 27.3979 4.01218H27.3972Z" fill="white"/>
</g>
<defs>
<clipPath id="clip0_1265_1468">
<rect width="115.732" height="35.6707" fill="white" transform="translate(0.414612 0.0487671)"/>
</clipPath>
</defs>
</svg>
